<svg width="320" height="169" viewBox="0 0 320 169" fill="none" xmlns="http://www.w3.org/2000/svg">
<g filter="url(#filter0_f_1_435)">
<rect x="54.0857" y="54.9476" width="211.829" height="60" rx="10" fill="#F53838" fill-opacity="0.35"/>
</g>
<rect x="35" y="29.6567" width="250" height="60" rx="20" fill="#F53838"/>
<path d="M97.492 65.3167C96.6707 65.3167 95.908 65.1781 95.204 64.9007C94.5107 64.6127 93.9507 64.1914 93.524 63.6367C93.108 63.0821 92.8893 62.4154 92.868 61.6367C92.868 61.5407 92.9 61.4607 92.964 61.3967C93.028 61.3221 93.1133 61.2847 93.22 61.2847H95.38C95.5187 61.2847 95.6253 61.3221 95.7 61.3967C95.7853 61.4714 95.86 61.5834 95.924 61.7327C96.0947 62.5861 96.644 63.0127 97.572 63.0127C98.1053 63.0127 98.516 62.8367 98.804 62.4847C99.092 62.1327 99.236 61.6261 99.236 60.9647V56.3407H94.052C93.9453 56.3407 93.8493 56.3034 93.764 56.2287C93.6893 56.1434 93.652 56.0474 93.652 55.9407V54.3567C93.652 54.2394 93.6893 54.1434 93.764 54.0687C93.8493 53.9941 93.9453 53.9567 94.052 53.9567H101.796C101.913 53.9567 102.009 53.9941 102.084 54.0687C102.169 54.1434 102.212 54.2394 102.212 54.3567V61.0447C102.212 61.9514 102.015 62.7247 101.62 63.3647C101.225 64.0047 100.671 64.4901 99.956 64.8207C99.2413 65.1514 98.42 65.3167 97.492 65.3167ZM108.114 65.3167C106.792 65.3167 105.773 65.0021 105.058 64.3727C104.344 63.7434 103.954 62.8581 103.89 61.7167C103.88 61.5781 103.874 61.3381 103.874 60.9967C103.874 60.6554 103.88 60.4154 103.89 60.2767C103.954 59.1461 104.354 58.2661 105.09 57.6367C105.826 56.9967 106.834 56.6767 108.114 56.6767C109.405 56.6767 110.418 56.9967 111.154 57.6367C111.89 58.2661 112.29 59.1461 112.354 60.2767C112.365 60.4154 112.37 60.6554 112.37 60.9967C112.37 61.3381 112.365 61.5781 112.354 61.7167C112.29 62.8581 111.901 63.7434 111.186 64.3727C110.472 65.0021 109.448 65.3167 108.114 65.3167ZM108.114 63.3647C108.584 63.3647 108.93 63.2261 109.154 62.9487C109.378 62.6607 109.506 62.2234 109.538 61.6367C109.549 61.5301 109.554 61.3167 109.554 60.9967C109.554 60.6767 109.549 60.4634 109.538 60.3567C109.506 59.7807 109.373 59.3487 109.138 59.0607C108.914 58.7727 108.573 58.6287 108.114 58.6287C107.229 58.6287 106.76 59.2047 106.706 60.3567L106.69 60.9967L106.706 61.6367C106.728 62.2234 106.85 62.6607 107.074 62.9487C107.309 63.2261 107.656 63.3647 108.114 63.3647ZM114.344 55.6367C114.226 55.6367 114.13 55.5994 114.056 55.5247C113.981 55.4501 113.944 55.3541 113.944 55.2367V53.7967C113.944 53.6794 113.981 53.5834 114.056 53.5087C114.13 53.4341 114.226 53.3967 114.344 53.3967H116.264C116.381 53.3967 116.477 53.4341 116.552 53.5087C116.626 53.5834 116.664 53.6794 116.664 53.7967V55.2367C116.664 55.3541 116.626 55.4501 116.552 55.5247C116.477 55.5994 116.381 55.6367 116.264 55.6367H114.344ZM114.36 65.1567C114.242 65.1567 114.146 65.1194 114.072 65.0447C113.997 64.9701 113.96 64.8741 113.96 64.7567V57.2367C113.96 57.1194 113.997 57.0234 114.072 56.9487C114.146 56.8741 114.242 56.8367 114.36 56.8367H116.248C116.365 56.8367 116.461 56.8741 116.536 56.9487C116.61 57.0234 116.648 57.1194 116.648 57.2367V64.7567C116.648 64.8634 116.61 64.9594 116.536 65.0447C116.461 65.1194 116.365 65.1567 116.248 65.1567H114.36ZM118.938 65.1567C118.82 65.1567 118.724 65.1194 118.65 65.0447C118.575 64.9701 118.538 64.8741 118.538 64.7567V57.2367C118.538 57.1194 118.575 57.0234 118.65 56.9487C118.724 56.8741 118.82 56.8367 118.938 56.8367H120.778C120.895 56.8367 120.991 56.8741 121.066 56.9487C121.151 57.0234 121.194 57.1194 121.194 57.2367V57.8447C121.482 57.4927 121.85 57.2101 122.298 56.9967C122.756 56.7834 123.274 56.6767 123.85 56.6767C124.788 56.6767 125.551 56.9967 126.138 57.6367C126.724 58.2661 127.018 59.1514 127.018 60.2927V64.7567C127.018 64.8634 126.98 64.9594 126.906 65.0447C126.831 65.1194 126.735 65.1567 126.618 65.1567H124.602C124.495 65.1567 124.399 65.1194 124.314 65.0447C124.239 64.9594 124.202 64.8634 124.202 64.7567V60.3887C124.202 59.8874 124.079 59.5034 123.834 59.2367C123.588 58.9594 123.236 58.8207 122.778 58.8207C122.33 58.8207 121.978 58.9594 121.722 59.2367C121.466 59.5034 121.338 59.8874 121.338 60.3887V64.7567C121.338 64.8634 121.3 64.9594 121.226 65.0447C121.151 65.1194 121.055 65.1567 120.938 65.1567H118.938ZM136.169 65.1567C133.961 65.1567 132.857 64.1061 132.857 62.0047V58.9327H131.609C131.491 58.9327 131.39 58.8954 131.305 58.8207C131.23 58.7461 131.193 58.6501 131.193 58.5327V57.2367C131.193 57.1194 131.23 57.0234 131.305 56.9487C131.39 56.8741 131.491 56.8367 131.609 56.8367H132.857V54.1967C132.857 54.0794 132.894 53.9834 132.969 53.9087C133.054 53.8341 133.15 53.7967 133.257 53.7967H135.113C135.23 53.7967 135.326 53.8341 135.401 53.9087C135.475 53.9834 135.513 54.0794 135.513 54.1967V56.8367H137.513C137.63 56.8367 137.726 56.8741 137.801 56.9487C137.886 57.0234 137.929 57.1194 137.929 57.2367V58.5327C137.929 58.6501 137.886 58.7461 137.801 58.8207C137.726 58.8954 137.63 58.9327 137.513 58.9327H135.513V61.7807C135.513 62.5701 135.817 62.9647 136.425 62.9647H137.657C137.774 62.9647 137.87 63.0021 137.945 63.0767C138.019 63.1514 138.057 63.2474 138.057 63.3647V64.7567C138.057 64.8634 138.019 64.9594 137.945 65.0447C137.87 65.1194 137.774 65.1567 137.657 65.1567H136.169ZM139.782 65.1567C139.675 65.1567 139.579 65.1194 139.493 65.0447C139.419 64.9594 139.382 64.8634 139.382 64.7567V54.1967C139.382 54.0794 139.419 53.9834 139.493 53.9087C139.579 53.8341 139.675 53.7967 139.782 53.7967H141.83C141.947 53.7967 142.043 53.8341 142.118 53.9087C142.192 53.9834 142.23 54.0794 142.23 54.1967V57.7647C142.87 57.0394 143.712 56.6767 144.758 56.6767C145.376 56.6767 145.926 56.8154 146.406 57.0927C146.896 57.3701 147.28 57.7807 147.558 58.3247C147.835 58.8687 147.974 59.5247 147.974 60.2927V64.7567C147.974 64.8634 147.936 64.9594 147.862 65.0447C147.787 65.1194 147.691 65.1567 147.574 65.1567H145.51C145.403 65.1567 145.307 65.1194 145.222 65.0447C145.147 64.9594 145.11 64.8634 145.11 64.7567V60.3887C145.11 59.8874 144.987 59.5034 144.742 59.2367C144.507 58.9594 144.16 58.8207 143.702 58.8207C143.243 58.8207 142.88 58.9594 142.614 59.2367C142.358 59.5034 142.23 59.8874 142.23 60.3887V64.7567C142.23 64.8741 142.192 64.9701 142.118 65.0447C142.043 65.1194 141.947 65.1567 141.83 65.1567H139.782ZM153.628 65.3167C152.348 65.3167 151.34 64.9701 150.604 64.2767C149.868 63.5834 149.484 62.5754 149.452 61.2527V60.6927C149.494 59.4341 149.884 58.4527 150.62 57.7487C151.366 57.0341 152.364 56.6767 153.612 56.6767C154.518 56.6767 155.281 56.8634 155.9 57.2367C156.529 57.5994 156.998 58.1007 157.308 58.7407C157.628 59.3807 157.788 60.1167 157.788 60.9487V61.3327C157.788 61.4394 157.75 61.5354 157.676 61.6207C157.601 61.6954 157.505 61.7327 157.388 61.7327H152.268V61.8447C152.289 62.3461 152.412 62.7514 152.636 63.0607C152.86 63.3701 153.185 63.5247 153.612 63.5247C153.878 63.5247 154.097 63.4714 154.268 63.3647C154.438 63.2474 154.593 63.1087 154.732 62.9487C154.828 62.8314 154.902 62.7621 154.956 62.7407C155.02 62.7087 155.116 62.6927 155.244 62.6927H157.228C157.324 62.6927 157.404 62.7247 157.468 62.7887C157.542 62.8421 157.58 62.9167 157.58 63.0127C157.58 63.2901 157.42 63.6101 157.1 63.9727C156.79 64.3354 156.337 64.6501 155.74 64.9167C155.142 65.1834 154.438 65.3167 153.628 65.3167ZM154.972 60.1487V60.1167C154.972 59.5941 154.849 59.1834 154.604 58.8847C154.369 58.5754 154.038 58.4207 153.612 58.4207C153.196 58.4207 152.865 58.5754 152.62 58.8847C152.385 59.1834 152.268 59.5941 152.268 60.1167V60.1487H154.972ZM165.359 65.1567C165.252 65.1567 165.156 65.1194 165.071 65.0447C164.996 64.9594 164.959 64.8634 164.959 64.7567V56.4687H162.111C162.004 56.4687 161.908 56.4314 161.823 56.3567C161.748 56.2714 161.711 56.1754 161.711 56.0687V54.3567C161.711 54.2394 161.748 54.1434 161.823 54.0687C161.908 53.9941 162.004 53.9567 162.111 53.9567H170.719C170.836 53.9567 170.932 53.9941 171.007 54.0687C171.082 54.1434 171.119 54.2394 171.119 54.3567V56.0687C171.119 56.1861 171.082 56.2821 171.007 56.3567C170.932 56.4314 170.836 56.4687 170.719 56.4687H167.871V64.7567C167.871 64.8634 167.834 64.9594 167.759 65.0447C167.684 65.1194 167.588 65.1567 167.471 65.1567H165.359ZM171.969 65.1567C171.852 65.1567 171.756 65.1194 171.681 65.0447C171.606 64.9701 171.569 64.8741 171.569 64.7567V57.2367C171.569 57.1194 171.606 57.0234 171.681 56.9487C171.756 56.8741 171.852 56.8367 171.969 56.8367H173.809C173.926 56.8367 174.022 56.8794 174.097 56.9647C174.182 57.0394 174.225 57.1301 174.225 57.2367V57.8767C174.812 57.1834 175.601 56.8367 176.593 56.8367H177.297C177.414 56.8367 177.51 56.8741 177.585 56.9487C177.66 57.0234 177.697 57.1194 177.697 57.2367V58.8847C177.697 58.9914 177.66 59.0874 177.585 59.1727C177.51 59.2474 177.414 59.2847 177.297 59.2847H175.745C175.308 59.2847 174.966 59.4074 174.721 59.6527C174.486 59.8874 174.369 60.2234 174.369 60.6607V64.7567C174.369 64.8741 174.326 64.9701 174.241 65.0447C174.166 65.1194 174.07 65.1567 173.953 65.1567H171.969ZM181.19 65.3167C180.625 65.3167 180.107 65.2101 179.638 64.9967C179.179 64.7727 178.817 64.4741 178.55 64.1007C178.294 63.7167 178.166 63.2954 178.166 62.8367C178.166 62.1007 178.465 61.5087 179.062 61.0607C179.67 60.6127 180.502 60.3034 181.558 60.1327L183.558 59.8287V59.6047C183.558 59.1994 183.473 58.9007 183.302 58.7087C183.131 58.5167 182.843 58.4207 182.438 58.4207C182.193 58.4207 181.99 58.4634 181.83 58.5487C181.67 58.6341 181.505 58.7514 181.334 58.9007C181.185 59.0287 181.073 59.1141 180.998 59.1567C180.966 59.2421 180.907 59.2847 180.822 59.2847H179.078C178.971 59.2847 178.881 59.2527 178.806 59.1887C178.742 59.1141 178.715 59.0287 178.726 58.9327C178.737 58.6447 178.875 58.3247 179.142 57.9727C179.419 57.6207 179.835 57.3167 180.39 57.0607C180.955 56.8047 181.649 56.6767 182.47 56.6767C183.782 56.6767 184.753 56.9701 185.382 57.5567C186.011 58.1327 186.326 58.9114 186.326 59.8927V64.7567C186.326 64.8634 186.289 64.9594 186.214 65.0447C186.139 65.1194 186.043 65.1567 185.926 65.1567H184.07C183.963 65.1567 183.867 65.1194 183.782 65.0447C183.707 64.9594 183.67 64.8634 183.67 64.7567V64.1967C183.435 64.5274 183.105 64.7994 182.678 65.0127C182.262 65.2154 181.766 65.3167 181.19 65.3167ZM181.942 63.4927C182.433 63.4927 182.827 63.3327 183.126 63.0127C183.435 62.6927 183.59 62.2234 183.59 61.6047V61.3807L182.23 61.6207C181.27 61.7914 180.79 62.1274 180.79 62.6287C180.79 62.8954 180.902 63.1087 181.126 63.2687C181.35 63.4181 181.622 63.4927 181.942 63.4927ZM188.516 55.6367C188.398 55.6367 188.302 55.5994 188.228 55.5247C188.153 55.4501 188.116 55.3541 188.116 55.2367V53.7967C188.116 53.6794 188.153 53.5834 188.228 53.5087C188.302 53.4341 188.398 53.3967 188.516 53.3967H190.436C190.553 53.3967 190.649 53.4341 190.724 53.5087C190.798 53.5834 190.836 53.6794 190.836 53.7967V55.2367C190.836 55.3541 190.798 55.4501 190.724 55.5247C190.649 55.5994 190.553 55.6367 190.436 55.6367H188.516ZM188.532 65.1567C188.414 65.1567 188.318 65.1194 188.243 65.0447C188.169 64.9701 188.132 64.8741 188.132 64.7567V57.2367C188.132 57.1194 188.169 57.0234 188.243 56.9487C188.318 56.8741 188.414 56.8367 188.532 56.8367H190.42C190.537 56.8367 190.633 56.8741 190.708 56.9487C190.782 57.0234 190.82 57.1194 190.82 57.2367V64.7567C190.82 64.8634 190.782 64.9594 190.708 65.0447C190.633 65.1194 190.537 65.1567 190.42 65.1567H188.532ZM193.11 65.1567C192.992 65.1567 192.896 65.1194 192.822 65.0447C192.747 64.9701 192.71 64.8741 192.71 64.7567V57.2367C192.71 57.1194 192.747 57.0234 192.822 56.9487C192.896 56.8741 192.992 56.8367 193.11 56.8367H194.95C195.067 56.8367 195.163 56.8741 195.238 56.9487C195.323 57.0234 195.366 57.1194 195.366 57.2367V57.8447C195.654 57.4927 196.022 57.2101 196.47 56.9967C196.928 56.7834 197.446 56.6767 198.022 56.6767C198.96 56.6767 199.723 56.9967 200.31 57.6367C200.896 58.2661 201.19 59.1514 201.19 60.2927V64.7567C201.19 64.8634 201.152 64.9594 201.078 65.0447C201.003 65.1194 200.907 65.1567 200.79 65.1567H198.774C198.667 65.1567 198.571 65.1194 198.486 65.0447C198.411 64.9594 198.374 64.8634 198.374 64.7567V60.3887C198.374 59.8874 198.251 59.5034 198.006 59.2367C197.76 58.9594 197.408 58.8207 196.95 58.8207C196.502 58.8207 196.15 58.9594 195.894 59.2367C195.638 59.5034 195.51 59.8874 195.51 60.3887V64.7567C195.51 64.8634 195.472 64.9594 195.398 65.0447C195.323 65.1194 195.227 65.1567 195.11 65.1567H193.11ZM203.375 55.6367C203.258 55.6367 203.162 55.5994 203.087 55.5247C203.012 55.4501 202.975 55.3541 202.975 55.2367V53.7967C202.975 53.6794 203.012 53.5834 203.087 53.5087C203.162 53.4341 203.258 53.3967 203.375 53.3967H205.295C205.412 53.3967 205.508 53.4341 205.583 53.5087C205.658 53.5834 205.695 53.6794 205.695 53.7967V55.2367C205.695 55.3541 205.658 55.4501 205.583 55.5247C205.508 55.5994 205.412 55.6367 205.295 55.6367H203.375ZM203.391 65.1567C203.274 65.1567 203.178 65.1194 203.103 65.0447C203.028 64.9701 202.991 64.8741 202.991 64.7567V57.2367C202.991 57.1194 203.028 57.0234 203.103 56.9487C203.178 56.8741 203.274 56.8367 203.391 56.8367H205.279C205.396 56.8367 205.492 56.8741 205.567 56.9487C205.642 57.0234 205.679 57.1194 205.679 57.2367V64.7567C205.679 64.8634 205.642 64.9594 205.567 65.0447C205.492 65.1194 205.396 65.1567 205.279 65.1567H203.391ZM207.969 65.1567C207.852 65.1567 207.756 65.1194 207.681 65.0447C207.606 64.9701 207.569 64.8741 207.569 64.7567V57.2367C207.569 57.1194 207.606 57.0234 207.681 56.9487C207.756 56.8741 207.852 56.8367 207.969 56.8367H209.809C209.926 56.8367 210.022 56.8741 210.097 56.9487C210.182 57.0234 210.225 57.1194 210.225 57.2367V57.8447C210.513 57.4927 210.881 57.2101 211.329 56.9967C211.788 56.7834 212.305 56.6767 212.881 56.6767C213.82 56.6767 214.582 56.9967 215.169 57.6367C215.756 58.2661 216.049 59.1514 216.049 60.2927V64.7567C216.049 64.8634 216.012 64.9594 215.937 65.0447C215.862 65.1194 215.766 65.1567 215.649 65.1567H213.633C213.526 65.1567 213.43 65.1194 213.345 65.0447C213.27 64.9594 213.233 64.8634 213.233 64.7567V60.3887C213.233 59.8874 213.11 59.5034 212.865 59.2367C212.62 58.9594 212.268 58.8207 211.809 58.8207C211.361 58.8207 211.009 58.9594 210.753 59.2367C210.497 59.5034 210.369 59.8874 210.369 60.3887V64.7567C210.369 64.8634 210.332 64.9594 210.257 65.0447C210.182 65.1194 210.086 65.1567 209.969 65.1567H207.969ZM221.93 68.6767C220.917 68.6767 220.096 68.5114 219.466 68.1807C218.837 67.8501 218.384 67.4714 218.106 67.0447C217.84 66.6181 217.706 66.2607 217.706 65.9727C217.706 65.8767 217.749 65.7914 217.834 65.7167C217.92 65.6421 218.016 65.6047 218.122 65.6047H220.154C220.261 65.6047 220.341 65.6261 220.394 65.6687C220.458 65.7221 220.517 65.8074 220.57 65.9247C220.677 66.1701 220.821 66.3621 221.002 66.5007C221.184 66.6501 221.466 66.7247 221.85 66.7247C222.341 66.7247 222.704 66.6021 222.938 66.3567C223.173 66.1221 223.29 65.7221 223.29 65.1567V64.0847C222.746 64.6821 221.968 64.9807 220.954 64.9807C219.877 64.9807 219.05 64.6661 218.474 64.0367C217.909 63.3967 217.6 62.4741 217.546 61.2687L217.53 60.8367C217.53 59.5461 217.818 58.5327 218.394 57.7967C218.97 57.0501 219.824 56.6767 220.954 56.6767C221.498 56.6767 221.978 56.7834 222.394 56.9967C222.81 57.1994 223.162 57.4767 223.45 57.8287V57.2367C223.45 57.1194 223.488 57.0234 223.562 56.9487C223.648 56.8741 223.744 56.8367 223.85 56.8367H225.69C225.808 56.8367 225.904 56.8794 225.978 56.9647C226.064 57.0394 226.106 57.1301 226.106 57.2367V64.9327C226.106 66.1487 225.744 67.0767 225.018 67.7167C224.293 68.3567 223.264 68.6767 221.93 68.6767ZM221.818 62.9007C222.298 62.9007 222.656 62.7567 222.89 62.4687C223.125 62.1701 223.258 61.7967 223.29 61.3487C223.301 61.2741 223.306 61.1087 223.306 60.8527C223.306 60.6074 223.301 60.4474 223.29 60.3727C223.269 59.9247 223.136 59.5567 222.89 59.2687C222.656 58.9701 222.298 58.8207 221.818 58.8207C221.317 58.8207 220.954 58.9701 220.73 59.2687C220.506 59.5674 220.384 59.9781 220.362 60.5007L220.346 60.8527C220.346 61.4821 220.453 61.9834 220.666 62.3567C220.88 62.7194 221.264 62.9007 221.818 62.9007Z" fill="white"/>
<defs>
<filter id="filter0_f_1_435" x="0.0856934" y="0.947632" width="319.829" height="168" filterUnits="userSpaceOnUse" color-interpolation-filters="sRGB">
<feFlood flood-opacity="0" result="BackgroundImageFix"/>
<feBlend mode="normal" in="SourceGraphic" in2="BackgroundImageFix" result="shape"/>
<feGaussianBlur stdDeviation="27" result="effect1_foregroundBlur_1_435"/>
</filter>
</defs>
</svg>
