<svg width="510" height="536" viewBox="0 0 510 536" fill="none" xmlns="http://www.w3.org/2000/svg">
<path d="M380.649 379.338L340.927 349.229L309.726 409.175C327.954 428.826 358.577 443.105 374.401 438.741C406.875 429.794 472.498 310.741 481.604 301.678C512.602 270.833 522.678 259.123 483.89 283.099C446.909 305.951 466.496 283.099 457.436 283.099C446.551 284.08 450.158 296.552 454.198 305.487L380.649 379.338Z" fill="url(#paint0_linear_1_127)"/>
<path d="M155.267 333.723C166.474 323.678 210.756 305.577 230.204 297.792L250.779 300.684C263.743 304.841 291.549 311.916 304.34 318.604C317.131 325.305 340.343 346.647 361.998 364.451L356.885 387.317C352.293 407.845 340.15 424.139 324.432 430.84C320.387 464.047 316.899 518.041 317.475 534.773L166.989 534.618L160.1 452.453L129.111 456.726L102.934 430.84C135.711 357.634 141.259 346.285 155.267 333.723Z" fill="url(#paint1_linear_1_127)"/>
<path d="M112.216 522.56C64.5352 514.749 95.5463 452.362 104 431.756C114.225 442.873 126.851 449.651 140.164 451.175L156.595 453.06L149.867 473.097L222.506 495.059L232.697 531.559C225.438 529.958 171.509 532.269 112.216 522.56Z" fill="url(#paint2_linear_1_127)"/>
<path d="M235.275 133.976C237.622 128.502 244.352 120.833 252.499 133.976H235.275Z" fill="#30235B"/>
<path d="M239.187 345.586C253.531 345.586 265.159 334.887 265.159 321.69C265.159 308.493 253.531 297.794 239.187 297.794C224.843 297.794 213.214 308.493 213.214 321.69C213.214 334.887 224.843 345.586 239.187 345.586Z" fill="#CF0606"/>
<path d="M217.906 320.399L221.536 273.725H256.881L260.941 320.399C259.522 325.899 252.822 337.041 240.416 337.041C224.603 337.041 218.919 325.899 217.906 320.399Z" fill="url(#paint3_linear_1_127)"/>
<mask id="mask0_1_127" style="mask-type:alpha" maskUnits="userSpaceOnUse" x="217" y="273" width="44" height="65">
<path d="M217.906 320.399L221.536 273.725H256.881L260.949 320.489C259.53 325.989 252.807 337.054 240.4 337.054C224.588 337.054 218.919 325.899 217.906 320.399Z" fill="url(#paint4_linear_1_127)"/>
</mask>
<g mask="url(#mask0_1_127)">
<path opacity="0.1" d="M269.619 275.52C237.66 326.57 219.801 285.513 210.576 279.355L216.915 244.843L254.757 239.008L269.619 275.52Z" fill="black"/>
</g>
<path d="M238.574 292.459C200.457 292.459 193.902 221.823 205.679 189.507C232.177 147.701 265.301 172.09 278.55 189.507C281.74 216.439 285.257 292.459 238.574 292.459Z" fill="url(#paint5_linear_1_127)"/>
<path d="M279.201 238.427L271.733 231.313L272.888 226.032L281.418 233.288L279.201 238.427Z" fill="#111111"/>
<path d="M201.396 236.361L208.864 229.26L207.709 223.966L199.179 231.235L201.396 236.361Z" fill="#111111"/>
<path d="M208.23 193.754C235.253 216.491 265.212 203.231 276.813 193.754C274.37 203.709 277.831 222.817 279.866 231.145C297.45 201.579 291.701 185.608 286.629 181.321C285.784 166.59 275.409 129.742 240.58 131.497C205.751 133.24 198.992 165.131 199.979 176.957C186.791 200.094 194.637 222.714 200.998 231.145C208.23 213.018 208.065 200.3 208.23 193.754Z" fill="#30235B"/>
<path opacity="0.5" d="M222.149 246.677C216.757 246.677 214.041 241.19 213.351 238.737C212.557 236.684 211.931 231.352 213.81 227.104C216.199 221.72 227.428 220.209 231.362 227.827C235.295 235.444 231.362 246.677 222.149 246.677Z" fill="#E6FCFF"/>
<path opacity="0.5" d="M257.88 246.677C263.273 246.677 265.988 241.19 266.678 238.737C267.472 236.684 268.099 231.352 266.22 227.104C263.831 221.72 252.601 220.209 248.668 227.827C244.734 235.444 248.668 246.677 257.88 246.677Z" fill="#E6FCFF"/>
<path fill-rule="evenodd" clip-rule="evenodd" d="M234.147 226.148C225.353 216.181 217.409 220.39 212.702 222.895C212.179 223.179 211.695 223.437 211.255 223.644L208.308 223.657C207.753 223.657 207.305 224.238 207.31 224.961L207.332 228.15C207.337 228.86 207.783 229.428 208.332 229.428H210.463C208.919 246.535 218.691 251.118 226.506 248.033C233.474 245.283 235.339 237.51 235.712 232.63C237.202 228.369 243.736 230.332 243.995 232.526C244.001 232.578 244.008 232.643 244.015 232.707C244.322 235.38 245.867 248.872 257.63 248.898C267.265 248.911 269.878 237.794 269.98 232.23L272.475 232.204C273.027 232.204 273.471 231.623 273.466 230.9L273.439 226.988C273.434 226.278 272.982 225.71 272.43 225.71L269.936 225.735C263.66 217.524 250.178 218.299 245.429 226.019C240.19 224.457 235.725 225.451 234.147 226.148ZM222.149 246.677C216.757 246.677 214.041 241.19 213.351 238.737C212.558 236.684 211.931 231.352 213.81 227.104C216.199 221.72 227.428 220.209 231.362 227.827C235.295 235.444 231.362 246.677 222.149 246.677ZM266.679 238.737C265.989 241.19 263.274 246.677 257.881 246.677C248.669 246.677 244.736 235.444 248.669 227.827C252.602 220.209 263.832 221.72 266.221 227.104C268.1 231.352 267.473 236.684 266.679 238.737Z" fill="#111111"/>
<path d="M163.801 527.853C163.801 527.13 164.251 526.549 164.806 526.549H319.198C320.169 526.549 320.956 527.569 320.956 528.821C320.956 532.579 318.595 535.626 315.682 535.626H169.829C166.5 535.626 163.801 532.152 163.801 527.853Z" fill="#B4B4B4"/>
<path d="M318.009 394.172H166.748C165.12 394.172 163.801 395.876 163.801 397.977V526.123C163.801 528.225 165.12 529.928 166.748 529.928H318.009C319.637 529.928 320.956 528.225 320.956 526.123V397.977C320.956 395.876 319.637 394.172 318.009 394.172Z" fill="url(#paint6_linear_1_127)"/>
<path d="M242.378 476.476C248.551 476.476 253.555 470.015 253.555 462.046C253.555 454.076 248.551 447.615 242.378 447.615C236.205 447.615 231.202 454.076 231.202 462.046C231.202 470.015 236.205 476.476 242.378 476.476Z" fill="white"/>
<path fill-rule="evenodd" clip-rule="evenodd" d="M130.715 219.525C130.915 215.122 131.594 211.43 132.161 209.39C133.273 212.979 133.823 216.426 134.009 219.577C136.445 219.809 139.116 220.519 141.897 221.952C140.311 222.688 137.458 223.566 134.049 223.824C133.859 228.498 132.929 232.126 132.161 233.985C131.226 230.603 130.799 227.13 130.688 223.863C128.153 223.721 125.461 223.166 122.844 221.952C124.285 220.971 127.096 219.77 130.715 219.525Z" fill="url(#paint7_linear_1_127)"/>
<path fill-rule="evenodd" clip-rule="evenodd" d="M103.828 190.565C103.96 187.635 104.413 185.182 104.79 183.813C105.53 186.214 105.896 188.5 106.02 190.604C107.641 190.759 109.419 191.237 111.271 192.192C110.215 192.67 108.316 193.264 106.047 193.432C105.92 196.543 105.301 198.958 104.79 200.197C104.167 197.951 103.884 195.627 103.81 193.457C102.122 193.354 100.33 192.993 98.5885 192.192C99.5471 191.521 101.419 190.733 103.828 190.565Z" fill="url(#paint8_linear_1_127)"/>
<path fill-rule="evenodd" clip-rule="evenodd" d="M60.5044 169.934C60.7037 165.531 61.3833 161.851 61.9497 159.799C63.0625 163.388 63.6125 166.848 63.7985 169.985C66.234 170.231 68.9048 170.941 71.6866 172.374C70.1006 173.11 67.2472 173.988 63.8385 174.246C63.6484 178.907 62.7178 182.548 61.9497 184.407C61.0152 181.024 60.5887 177.551 60.4774 174.272C57.9422 174.13 55.2505 173.575 52.6336 172.374C54.0738 171.38 56.8855 170.179 60.5044 169.934Z" fill="url(#paint9_linear_1_127)"/>
<path fill-rule="evenodd" clip-rule="evenodd" d="M64.2134 271.079C64.5066 264.61 65.5065 259.188 66.3398 256.179C67.9769 261.46 68.7862 266.534 69.0598 271.156C72.643 271.505 76.5724 272.551 80.6651 274.668C78.3317 275.74 74.1337 277.031 69.1187 277.418C68.839 284.287 67.4698 289.632 66.3398 292.369C64.9648 287.398 64.3374 282.286 64.1737 277.47C60.4438 277.25 56.4836 276.45 52.6336 274.668C54.7524 273.209 58.8892 271.44 64.2134 271.079Z" fill="url(#paint10_linear_1_127)"/>
<path d="M94.6823 235.175C95.6993 235.175 96.5237 234.111 96.5237 232.798C96.5237 231.485 95.6993 230.42 94.6823 230.42C93.6653 230.42 92.8409 231.485 92.8409 232.798C92.8409 234.111 93.6653 235.175 94.6823 235.175Z" fill="#2F235A"/>
<path d="M136.94 167.005C137.957 167.005 138.781 165.94 138.781 164.627C138.781 163.314 137.957 162.25 136.94 162.25C135.923 162.25 135.099 163.314 135.099 164.627C135.099 165.94 135.923 167.005 136.94 167.005Z" fill="#FE9076"/>
<path d="M44.3205 225.737C45.3375 225.737 46.1619 224.672 46.1619 223.359C46.1619 222.046 45.3375 220.982 44.3205 220.982C43.3035 220.982 42.4791 222.046 42.4791 223.359C42.4791 224.672 43.3035 225.737 44.3205 225.737Z" fill="#FFA400"/>
<path d="M126.847 271.842C127.864 271.842 128.688 270.778 128.688 269.465C128.688 268.152 127.864 267.087 126.847 267.087C125.83 267.087 125.006 268.152 125.006 269.465C125.006 270.778 125.83 271.842 126.847 271.842Z" fill="#23BB86"/>
<path d="M132.428 154.699C128.265 147.327 116.538 131.549 102.934 127.534" stroke="#FE9076" stroke-width="1.60277" stroke-linecap="round"/>
<path d="M36.5511 216.982C30.3979 212.476 14.6733 204.38 1 207.97" stroke="#FFA400" stroke-width="1.60277" stroke-linecap="round"/>
<path d="M120.527 276.372C117.374 279.962 109.788 290.161 104.669 302.233" stroke="#23BB86" stroke-width="1.60277" stroke-linecap="round"/>
<path fill-rule="evenodd" clip-rule="evenodd" d="M348.065 219.525C347.866 215.122 347.186 211.43 346.62 209.39C345.507 212.979 344.957 216.426 344.771 219.577C342.335 219.809 339.664 220.519 336.883 221.952C338.469 222.688 341.322 223.566 344.731 223.824C344.921 228.498 345.851 232.126 346.62 233.985C347.554 230.603 347.981 227.13 348.092 223.863C350.627 223.721 353.319 223.166 355.936 221.952C354.496 220.971 351.684 219.77 348.065 219.525Z" fill="url(#paint11_linear_1_127)"/>
<path fill-rule="evenodd" clip-rule="evenodd" d="M374.953 190.565C374.82 187.635 374.368 185.182 373.991 183.813C373.25 186.214 372.884 188.5 372.76 190.604C371.139 190.759 369.361 191.237 367.509 192.192C368.565 192.67 370.464 193.264 372.733 193.432C372.86 196.543 373.479 198.958 373.991 200.197C374.613 197.951 374.896 195.627 374.971 193.457C376.658 193.354 378.45 192.993 380.192 192.192C379.233 191.521 377.361 190.733 374.953 190.565Z" fill="url(#paint12_linear_1_127)"/>
<path fill-rule="evenodd" clip-rule="evenodd" d="M418.276 169.934C418.076 165.531 417.397 161.851 416.83 159.799C415.718 163.388 415.168 166.848 414.982 169.985C412.546 170.231 409.875 170.941 407.093 172.374C408.679 173.11 411.533 173.988 414.942 174.246C415.132 178.907 416.062 182.548 416.83 184.407C417.765 181.024 418.191 177.551 418.303 174.272C420.838 174.13 423.53 173.575 426.146 172.374C424.706 171.38 421.895 170.179 418.276 169.934Z" fill="url(#paint13_linear_1_127)"/>
<path fill-rule="evenodd" clip-rule="evenodd" d="M414.567 271.079C414.273 264.61 413.274 259.188 412.44 256.179C410.803 261.46 409.994 266.534 409.72 271.156C406.137 271.505 402.208 272.551 398.115 274.668C400.448 275.74 404.646 277.031 409.661 277.418C409.941 284.287 411.31 289.632 412.44 292.369C413.815 287.398 414.443 282.286 414.606 277.47C418.336 277.25 422.296 276.45 426.146 274.668C424.028 273.209 419.891 271.44 414.567 271.079Z" fill="url(#paint14_linear_1_127)"/>
<path d="M384.098 235.177C383.081 235.177 382.256 234.112 382.256 232.799C382.256 231.486 383.081 230.422 384.098 230.422C385.115 230.422 385.939 231.486 385.939 232.799C385.939 234.112 385.115 235.177 384.098 235.177Z" fill="#2F235A"/>
<path d="M341.84 167.007C340.823 167.007 339.998 165.942 339.998 164.629C339.998 163.316 340.823 162.252 341.84 162.252C342.857 162.252 343.681 163.316 343.681 164.629C343.681 165.942 342.857 167.007 341.84 167.007Z" fill="#FE9076"/>
<path d="M434.46 225.739C433.443 225.739 432.618 224.674 432.618 223.361C432.618 222.048 433.443 220.984 434.46 220.984C435.477 220.984 436.301 222.048 436.301 223.361C436.301 224.674 435.477 225.739 434.46 225.739Z" fill="#FFA400"/>
<path d="M351.934 271.844C350.917 271.844 350.092 270.78 350.092 269.467C350.092 268.154 350.917 267.089 351.934 267.089C352.951 267.089 353.775 268.154 353.775 269.467C353.775 270.78 352.951 271.844 351.934 271.844Z" fill="#23BB86"/>
<path d="M346.352 154.699C350.515 147.327 362.242 131.549 375.846 127.534" stroke="#FE9076" stroke-width="1.60277" stroke-linecap="round"/>
<path d="M442.229 216.982C448.382 212.476 464.107 204.38 477.78 207.97" stroke="#FFA400" stroke-width="1.60277" stroke-linecap="round"/>
<path d="M358.253 276.372C361.406 279.962 368.992 290.161 374.111 302.233" stroke="#23BB86" stroke-width="1.60277" stroke-linecap="round"/>
<path d="M269.426 72.7137C267.338 68.5564 263.112 70.8286 263.112 75.3604C263.112 78.7689 268.906 84.0883 269.426 84.7855C269.95 84.0883 275.456 78.7689 275.456 75.3604C275.456 70.8544 271.518 68.5564 269.426 72.7137Z" fill="#FFBCBC"/>
<path d="M269.284 95.4758C276.905 95.4758 283.084 87.4988 283.084 77.6587C283.084 67.8186 276.905 59.8416 269.284 59.8416C261.663 59.8416 255.484 67.8186 255.484 77.6587C255.484 87.4988 261.663 95.4758 269.284 95.4758Z" stroke="#F7F7F7" stroke-width="0.649684"/>
<path d="M219.903 47.8856C218.055 44.2059 214.315 46.2072 214.315 50.2225C214.315 53.2437 219.443 57.9562 219.903 58.563C220.367 57.9562 225.24 53.2437 225.24 50.2225C225.24 46.233 221.755 44.2059 219.903 47.8856Z" fill="#FFBCBC"/>
<path d="M219.777 68.0314C226.522 68.0314 231.99 60.9714 231.99 52.2625C231.99 43.5536 226.522 36.4937 219.777 36.4937C213.032 36.4937 207.563 43.5536 207.563 52.2625C207.563 60.9714 213.032 68.0314 219.777 68.0314Z" stroke="#F7F7F7" stroke-width="0.574998"/>
<path d="M252.586 20.8113C251.322 18.2807 248.763 19.6622 248.763 22.3993C248.763 24.4651 252.271 27.6929 252.586 28.106C252.903 27.6929 256.235 24.4651 256.235 22.3993C256.235 19.6751 253.852 18.2807 252.586 20.8113Z" fill="#FFBCBC"/>
<path d="M252.499 34.5786C257.112 34.5786 260.852 29.7501 260.852 23.7938C260.852 17.8375 257.112 13.009 252.499 13.009C247.886 13.009 244.146 17.8375 244.146 23.7938C244.146 29.7501 247.886 34.5786 252.499 34.5786Z" stroke="#F7F7F7" stroke-width="0.393259"/>
<path d="M194.856 6.77715C193.822 4.71138 191.729 5.83466 191.729 8.08117C191.729 9.77252 194.598 12.4193 194.856 12.755C195.115 12.4193 197.842 9.77252 197.842 8.08117C197.842 5.86048 195.892 4.71138 194.856 6.77715Z" fill="#FFBCBC"/>
<path d="M194.785 18.0547C198.56 18.0547 201.62 14.1039 201.62 9.23024C201.62 4.35659 198.56 0.405762 194.785 0.405762C191.01 0.405762 187.95 4.35659 187.95 9.23024C187.95 14.1039 191.01 18.0547 194.785 18.0547Z" stroke="#F7F7F7" stroke-width="0.321779"/>
<path d="M189.769 103.468C187.511 98.9619 182.941 101.415 182.941 106.321C182.941 110.001 189.206 115.759 189.769 116.521C190.336 115.759 196.29 110.001 196.29 106.321C196.29 101.454 192.031 98.9619 189.769 103.468Z" fill="#FFBCBC"/>
<path d="M189.615 128.067C197.857 128.067 204.538 119.441 204.538 108.8C204.538 98.1594 197.857 89.5334 189.615 89.5334C181.373 89.5334 174.692 98.1594 174.692 108.8C174.692 119.441 181.373 128.067 189.615 128.067Z" stroke="#F7F7F7" stroke-width="0.702541"/>
<defs>
<linearGradient id="paint0_linear_1_127" x1="390.781" y1="204.6" x2="395.193" y2="431.632" gradientUnits="userSpaceOnUse">
<stop stop-color="#FFEFE0"/>
<stop offset="1" stop-color="#FFBE99"/>
</linearGradient>
<linearGradient id="paint1_linear_1_127" x1="242.275" y1="258.684" x2="221.639" y2="578.786" gradientUnits="userSpaceOnUse">
<stop stop-color="#FF9F81"/>
<stop offset="1" stop-color="#F53838"/>
</linearGradient>
<linearGradient id="paint2_linear_1_127" x1="227.21" y1="371.359" x2="98.9513" y2="418.973" gradientUnits="userSpaceOnUse">
<stop offset="0.0677966" stop-color="#FFEFE0"/>
<stop offset="1" stop-color="#FFBE99"/>
</linearGradient>
<linearGradient id="paint3_linear_1_127" x1="238.204" y1="223.527" x2="241.669" y2="309.175" gradientUnits="userSpaceOnUse">
<stop stop-color="#FFEFE0"/>
<stop offset="1" stop-color="#FFBE99"/>
</linearGradient>
<linearGradient id="paint4_linear_1_127" x1="238.204" y1="223.527" x2="233.351" y2="321.077" gradientUnits="userSpaceOnUse">
<stop stop-color="#FFEFE0"/>
<stop offset="1" stop-color="#FFBE99"/>
</linearGradient>
<linearGradient id="paint5_linear_1_127" x1="241.661" y1="177.822" x2="241.661" y2="280.749" gradientUnits="userSpaceOnUse">
<stop stop-color="#FFEFE0"/>
<stop offset="1" stop-color="#FFBE99"/>
</linearGradient>
<linearGradient id="paint6_linear_1_127" x1="274.829" y1="292.278" x2="182.413" y2="549.128" gradientUnits="userSpaceOnUse">
<stop offset="0.0171777" stop-color="white"/>
<stop offset="1" stop-color="#D7D7D7"/>
</linearGradient>
<linearGradient id="paint7_linear_1_127" x1="132.371" y1="212.011" x2="132.371" y2="235.096" gradientUnits="userSpaceOnUse">
<stop stop-color="#FFE89E"/>
<stop offset="1" stop-color="#FFBF1A"/>
</linearGradient>
<linearGradient id="paint8_linear_1_127" x1="104.93" y1="185.556" x2="104.93" y2="200.933" gradientUnits="userSpaceOnUse">
<stop stop-color="#FFE89E"/>
<stop offset="1" stop-color="#FFBF1A"/>
</linearGradient>
<linearGradient id="paint9_linear_1_127" x1="62.1601" y1="162.42" x2="62.1601" y2="185.517" gradientUnits="userSpaceOnUse">
<stop stop-color="#FFE89E"/>
<stop offset="1" stop-color="#FFBF1A"/>
</linearGradient>
<linearGradient id="paint10_linear_1_127" x1="66.6494" y1="260.027" x2="66.6494" y2="294.009" gradientUnits="userSpaceOnUse">
<stop stop-color="#FFE89E"/>
<stop offset="1" stop-color="#FFBF1A"/>
</linearGradient>
<linearGradient id="paint11_linear_1_127" x1="346.409" y1="212.011" x2="346.409" y2="235.096" gradientUnits="userSpaceOnUse">
<stop stop-color="#FFE89E"/>
<stop offset="1" stop-color="#FFBF1A"/>
</linearGradient>
<linearGradient id="paint12_linear_1_127" x1="373.85" y1="185.556" x2="373.85" y2="200.933" gradientUnits="userSpaceOnUse">
<stop stop-color="#FFE89E"/>
<stop offset="1" stop-color="#FFBF1A"/>
</linearGradient>
<linearGradient id="paint13_linear_1_127" x1="416.62" y1="162.42" x2="416.62" y2="185.517" gradientUnits="userSpaceOnUse">
<stop stop-color="#FFE89E"/>
<stop offset="1" stop-color="#FFBF1A"/>
</linearGradient>
<linearGradient id="paint14_linear_1_127" x1="412.131" y1="260.027" x2="412.131" y2="294.009" gradientUnits="userSpaceOnUse">
<stop stop-color="#FFE89E"/>
<stop offset="1" stop-color="#FFBF1A"/>
</linearGradient>
</defs>
</svg>
