<svg width="330" height="115" viewBox="0 0 330 115" fill="none" xmlns="http://www.w3.org/2000/svg">
<g filter="url(#filter0_d_5_61)">
<rect x="30" y="26" width="270" height="55" rx="27.5" fill="#ED1C2E"/>
</g>
<path d="M65.221 56.7172C65.221 57.7612 64.699 58.5172 63.601 58.5172C62.503 58.5172 61.999 57.7612 61.981 56.7172H59.911C59.911 58.9852 61.441 60.3352 63.601 60.3352C65.761 60.3352 67.291 58.9852 67.291 56.7172V47.6992H65.221V56.7172ZM82.7252 53.9272C82.7252 50.1832 79.8992 47.5372 76.3352 47.5372C72.8072 47.5372 69.9452 50.1832 69.9452 53.9272C69.9452 57.6892 72.8072 60.3352 76.3352 60.3352C79.8992 60.3352 82.7252 57.6892 82.7252 53.9272ZM72.0512 53.9272C72.0512 51.1012 73.8512 49.3372 76.3352 49.3372C78.8192 49.3372 80.6192 51.1012 80.6192 53.9272C80.6192 56.7532 78.8192 58.5532 76.3352 58.5532C73.8512 58.5532 72.0512 56.7532 72.0512 53.9272ZM84.7444 60.2092H86.7964V47.6992H84.7444V60.2092ZM97.7165 47.6812V57.0052L91.5425 47.6812H89.4905V60.2092H91.5425V50.8672L97.7165 60.2092H99.7685V47.6812H97.7165ZM106.491 49.3732H109.839V60.2092H111.891V49.3732H115.221V47.6992H106.491V49.3732ZM125.237 60.2092H127.289V47.6992H125.237V53.0632H119.351V47.6992H117.299V60.2092H119.351V54.7372H125.237V60.2092ZM136.903 47.6812H129.991V60.2092H136.903V58.5352H132.043V54.7012H136.363V53.0272H132.043V49.3552H136.903V47.6812ZM144.106 60.2092H146.158V54.7372H150.298V53.0632H146.158V49.3732H151.468V47.6992H144.106V60.2092ZM160.011 51.4432C160.011 52.6852 159.291 53.5672 157.689 53.5672H155.421V49.3732H157.689C159.291 49.3732 160.011 50.1832 160.011 51.4432ZM153.369 47.6992V60.2092H155.421V55.2052H156.987L159.867 60.2092H162.315L159.219 55.0252C161.325 54.5032 162.117 52.9192 162.117 51.4432C162.117 49.4092 160.659 47.6992 157.689 47.6992H153.369ZM171.654 47.6812H164.742V60.2092H171.654V58.5352H166.794V54.7012H171.114V53.0272H166.794V49.3552H171.654V47.6812ZM181.094 47.6812H174.182V60.2092H181.094V58.5352H176.234V54.7012H180.554V53.0272H176.234V49.3552H181.094V47.6812ZM187.649 49.3732H190.997V60.2092H193.049V49.3732H196.379V47.6992H187.649V49.3732ZM205.099 51.4432C205.099 52.6852 204.379 53.5672 202.777 53.5672H200.509V49.3732H202.777C204.379 49.3732 205.099 50.1832 205.099 51.4432ZM198.457 47.6992V60.2092H200.509V55.2052H202.075L204.955 60.2092H207.403L204.307 55.0252C206.413 54.5032 207.205 52.9192 207.205 51.4432C207.205 49.4092 205.747 47.6992 202.777 47.6992H198.457ZM218.272 60.2092H220.432L215.95 47.6812H213.574L209.092 60.2092H211.234L212.134 57.6532H217.372L218.272 60.2092ZM216.796 55.9792H212.71L214.762 50.1652L216.796 55.9792ZM222.381 60.2092H224.433V47.6992H222.381V60.2092ZM235.353 47.6812V57.0052L229.179 47.6812H227.127V60.2092H229.179V50.8672L235.353 60.2092H237.405V47.6812H235.353ZM240.1 60.2092H242.152V47.6992H240.1V60.2092ZM253.072 47.6812V57.0052L246.898 47.6812H244.846V60.2092H246.898V50.8672L253.072 60.2092H255.124V47.6812H253.072ZM263.525 47.5372C259.997 47.5372 257.135 50.1832 257.135 53.9272C257.135 57.6892 259.997 60.3172 263.525 60.3172C266.891 60.3172 269.339 57.8512 269.717 54.9532V53.3512H262.823V54.9892H267.521C267.215 57.0952 265.793 58.4632 263.525 58.4632C261.041 58.4632 259.241 56.6812 259.241 53.9272C259.241 51.1732 261.041 49.4092 263.525 49.4092C265.019 49.4092 266.207 50.0392 266.873 51.2992H269.339C268.385 48.8512 266.135 47.5372 263.525 47.5372Z" fill="white"/>
<defs>
<filter id="filter0_d_5_61" x="0" y="0" width="330" height="115" filterUnits="userSpaceOnUse" color-interpolation-filters="sRGB">
<feFlood flood-opacity="0" result="BackgroundImageFix"/>
<feColorMatrix in="SourceAlpha" type="matrix" values="0 0 0 0 0 0 0 0 0 0 0 0 0 0 0 0 0 0 127 0" result="hardAlpha"/>
<feOffset dy="4"/>
<feGaussianBlur stdDeviation="15"/>
<feColorMatrix type="matrix" values="0 0 0 0 0.956863 0 0 0 0 0.376471 0 0 0 0 0.427451 0 0 0 1 0"/>
<feBlend mode="normal" in2="BackgroundImageFix" result="effect1_dropShadow_5_61"/>
<feBlend mode="normal" in="SourceGraphic" in2="effect1_dropShadow_5_61" result="shape"/>
</filter>
</defs>
</svg>
