<svg width="654" height="120" viewBox="0 0 654 120" fill="none" xmlns="http://www.w3.org/2000/svg">
<g filter="url(#filter0_d_4_58)">
<rect x="30" y="26" width="594" height="60" rx="30" fill="#001F7E"/>
</g>
<path d="M158.97 48.67C154.14 48.67 150.759 52.074 150.759 56.904C150.759 61.734 154.163 65.115 158.993 65.115C163.248 65.115 165.939 62.332 166.767 59.549V55.892H158.211V58.79H163.202C162.604 60.607 161.247 61.642 159.292 61.642C156.463 61.642 154.761 59.894 154.761 56.904C154.761 54.098 156.44 52.304 158.97 52.304C160.442 52.304 161.546 52.879 162.144 53.96H166.491C165.64 50.648 162.834 48.67 158.97 48.67ZM178.836 48.854H168.946V65H178.836V61.849H172.879V58.307H178.146V55.271H172.879V52.005H178.836V48.854ZM180.515 52.005H184.793V65H188.726V52.005H193.004V48.854H180.515V52.005ZM210.869 65H215.032L209.19 48.854H204.636L198.794 65H202.911L203.877 62.148H209.903L210.869 65ZM208.891 59.112H204.912L206.89 53.201L208.891 59.112ZM216.143 56.904C216.143 61.734 219.501 65.115 224.262 65.115C228.103 65.115 231.001 62.976 231.921 59.48H227.597C226.93 60.86 225.711 61.55 224.216 61.55C221.801 61.55 220.145 59.756 220.145 56.904C220.145 54.052 221.801 52.258 224.216 52.258C225.711 52.258 226.93 52.948 227.597 54.328H231.921C231.001 50.832 228.103 48.67 224.262 48.67C219.501 48.67 216.143 52.074 216.143 56.904ZM233.662 56.904C233.662 61.734 237.02 65.115 241.781 65.115C245.622 65.115 248.52 62.976 249.44 59.48H245.116C244.449 60.86 243.23 61.55 241.735 61.55C239.32 61.55 237.664 59.756 237.664 56.904C237.664 54.052 239.32 52.258 241.735 52.258C243.23 52.258 244.449 52.948 245.116 54.328H249.44C248.52 50.832 245.622 48.67 241.781 48.67C237.02 48.67 233.662 52.074 233.662 56.904ZM261.739 48.854H251.849V65H261.739V61.849H255.782V58.307H261.049V55.271H255.782V52.005H261.739V48.854ZM276.022 60.193C276.022 54.788 268.041 56.053 268.041 53.247C268.041 52.235 268.754 51.752 269.697 51.775C270.755 51.798 271.491 52.419 271.56 53.454H275.815C275.654 50.372 273.285 48.624 269.766 48.624C266.385 48.624 263.878 50.326 263.878 53.385C263.832 59.112 271.905 57.502 271.905 60.492C271.905 61.435 271.169 62.01 270.019 62.01C268.915 62.01 268.133 61.412 268.018 60.17H263.832C263.947 63.436 266.661 65.161 270.134 65.161C273.906 65.161 276.022 62.907 276.022 60.193ZM290.173 60.193C290.173 54.788 282.192 56.053 282.192 53.247C282.192 52.235 282.905 51.752 283.848 51.775C284.906 51.798 285.642 52.419 285.711 53.454H289.966C289.805 50.372 287.436 48.624 283.917 48.624C280.536 48.624 278.029 50.326 278.029 53.385C277.983 59.112 286.056 57.502 286.056 60.492C286.056 61.435 285.32 62.01 284.17 62.01C283.066 62.01 282.284 61.412 282.169 60.17H277.983C278.098 63.436 280.812 65.161 284.285 65.161C288.057 65.161 290.173 62.907 290.173 60.193ZM296.593 52.005H300.871V65H304.804V52.005H309.082V48.854H296.593V52.005ZM326.949 56.881C326.949 52.028 323.292 48.624 318.692 48.624C314.115 48.624 310.389 52.028 310.389 56.881C310.389 61.734 314.115 65.161 318.692 65.161C323.269 65.161 326.949 61.734 326.949 56.881ZM314.414 56.881C314.414 54.006 316.07 52.189 318.692 52.189C321.268 52.189 322.947 54.006 322.947 56.881C322.947 59.71 321.268 61.573 318.692 61.573C316.07 61.573 314.414 59.71 314.414 56.881ZM333.137 52.005H337.415V65H341.348V52.005H345.626V48.854H333.137V52.005ZM357.651 65H361.584V48.854H357.651V55.179H351.533V48.854H347.6V65H351.533V58.353H357.651V65ZM374.313 48.854H364.423V65H374.313V61.849H368.356V58.307H373.623V55.271H368.356V52.005H374.313V48.854ZM380.866 52.005H385.144V65H389.077V52.005H393.355V48.854H380.866V52.005ZM403.862 54.098C403.862 55.363 403.172 56.122 401.7 56.122H399.262V52.12H401.7C403.172 52.12 403.862 52.902 403.862 54.098ZM395.329 48.854V65H399.262V58.905H400.205L403.563 65H408.002L404.276 58.606C406.76 57.87 407.864 55.961 407.864 53.937C407.864 51.131 405.886 48.854 401.93 48.854H395.329ZM421.35 65H425.513L419.671 48.854H415.117L409.275 65H413.392L414.358 62.148H420.384L421.35 65ZM419.372 59.112H415.393L417.371 53.201L419.372 59.112ZM427.291 65H431.224V48.854H427.291V65ZM444.585 48.854V58.859L438.007 48.854H434.074V65H438.007V55.041L444.585 65H448.518V48.854H444.585ZM451.369 65H455.302V48.854H451.369V65ZM468.664 48.854V58.859L462.086 48.854H458.153V65H462.086V55.041L468.664 65H472.597V48.854H468.664ZM482.991 48.67C478.161 48.67 474.78 52.074 474.78 56.904C474.78 61.734 478.184 65.115 483.014 65.115C487.269 65.115 489.96 62.332 490.788 59.549V55.892H482.232V58.79H487.223C486.625 60.607 485.268 61.642 483.313 61.642C480.484 61.642 478.782 59.894 478.782 56.904C478.782 54.098 480.461 52.304 482.991 52.304C484.463 52.304 485.567 52.879 486.165 53.96H490.512C489.661 50.648 486.855 48.67 482.991 48.67Z" fill="white"/>
<defs>
<filter id="filter0_d_4_58" x="0" y="0" width="654" height="120" filterUnits="userSpaceOnUse" color-interpolation-filters="sRGB">
<feFlood flood-opacity="0" result="BackgroundImageFix"/>
<feColorMatrix in="SourceAlpha" type="matrix" values="0 0 0 0 0 0 0 0 0 0 0 0 0 0 0 0 0 0 127 0" result="hardAlpha"/>
<feOffset dy="4"/>
<feGaussianBlur stdDeviation="15"/>
<feColorMatrix type="matrix" values="0 0 0 0 0.647636 0 0 0 0 0.730595 0 0 0 0 0.9875 0 0 0 1 0"/>
<feBlend mode="normal" in2="BackgroundImageFix" result="effect1_dropShadow_4_58"/>
<feBlend mode="normal" in="SourceGraphic" in2="effect1_dropShadow_4_58" result="shape"/>
</filter>
</defs>
</svg>
