<svg width="218" height="45" viewBox="0 0 218 45" fill="none" xmlns="http://www.w3.org/2000/svg">
<rect x="0.5" y="0.5" width="217" height="44" rx="22" stroke="#F53855"/>
<path d="M25.568 28.16C24.096 28.16 22.9547 27.7813 22.144 27.024C21.344 26.2667 20.9173 25.2 20.864 23.824C20.8533 23.536 20.848 23.0667 20.848 22.416C20.848 21.7547 20.8533 21.2747 20.864 20.976C20.9173 19.6107 21.3493 18.5493 22.16 17.792C22.9813 17.024 24.1173 16.64 25.568 16.64C26.5173 16.64 27.344 16.8053 28.048 17.136C28.752 17.456 29.296 17.8987 29.68 18.464C30.064 19.0187 30.2667 19.648 30.288 20.352V20.384C30.288 20.4693 30.2507 20.544 30.176 20.608C30.112 20.6613 30.0373 20.688 29.952 20.688H28.432C28.304 20.688 28.208 20.6613 28.144 20.608C28.08 20.5547 28.0267 20.4533 27.984 20.304C27.8133 19.632 27.5307 19.1627 27.136 18.896C26.7413 18.6187 26.2133 18.48 25.552 18.48C24.016 18.48 23.216 19.3387 23.152 21.056C23.1413 21.344 23.136 21.7867 23.136 22.384C23.136 22.9813 23.1413 23.4347 23.152 23.744C23.216 25.4613 24.016 26.32 25.552 26.32C26.2133 26.32 26.7413 26.1813 27.136 25.904C27.5413 25.6267 27.824 25.1573 27.984 24.496C28.016 24.3467 28.064 24.2453 28.128 24.192C28.2027 24.1387 28.304 24.112 28.432 24.112H29.952C30.048 24.112 30.128 24.144 30.192 24.208C30.2667 24.272 30.2987 24.352 30.288 24.448C30.2667 25.152 30.064 25.7867 29.68 26.352C29.296 26.9067 28.752 27.3493 28.048 27.68C27.344 28 26.5173 28.16 25.568 28.16ZM32.3935 28C32.2868 28 32.1962 27.9627 32.1215 27.888C32.0468 27.8133 32.0095 27.7227 32.0095 27.616V17.024C32.0095 16.9067 32.0468 16.816 32.1215 16.752C32.1962 16.6773 32.2868 16.64 32.3935 16.64H33.7215C33.8388 16.64 33.9295 16.6773 33.9935 16.752C34.0682 16.816 34.1055 16.9067 34.1055 17.024V27.616C34.1055 27.7227 34.0682 27.8133 33.9935 27.888C33.9295 27.9627 33.8388 28 33.7215 28H32.3935ZM38.6439 28.16C38.0999 28.16 37.5985 28.0533 37.1399 27.84C36.6919 27.616 36.3345 27.3173 36.0679 26.944C35.8119 26.5707 35.6839 26.16 35.6839 25.712C35.6839 24.9867 35.9772 24.4 36.5639 23.952C37.1505 23.504 37.9559 23.2 38.9799 23.04L41.1719 22.72V22.384C41.1719 21.9147 41.0545 21.5627 40.8199 21.328C40.5852 21.0933 40.2065 20.976 39.6839 20.976C39.3319 20.976 39.0439 21.0453 38.8199 21.184C38.6065 21.312 38.4359 21.44 38.3079 21.568C38.1799 21.7067 38.0945 21.7973 38.0519 21.84C38.0092 21.968 37.9292 22.032 37.8119 22.032H36.5799C36.4839 22.032 36.3985 22 36.3239 21.936C36.2599 21.872 36.2279 21.7867 36.2279 21.68C36.2385 21.4133 36.3665 21.1093 36.6119 20.768C36.8679 20.4267 37.2572 20.1333 37.7799 19.888C38.3025 19.6427 38.9425 19.52 39.6999 19.52C40.9585 19.52 41.8759 19.8027 42.4519 20.368C43.0279 20.9333 43.3159 21.6747 43.3159 22.592V27.616C43.3159 27.7227 43.2785 27.8133 43.2039 27.888C43.1399 27.9627 43.0492 28 42.9319 28H41.6359C41.5292 28 41.4385 27.9627 41.3639 27.888C41.2892 27.8133 41.2519 27.7227 41.2519 27.616V26.992C41.0172 27.3333 40.6812 27.616 40.2439 27.84C39.8172 28.0533 39.2839 28.16 38.6439 28.16ZM39.1879 26.64C39.7745 26.64 40.2545 26.448 40.6279 26.064C41.0012 25.68 41.1879 25.12 41.1879 24.384V24.048L39.5879 24.304C38.9692 24.4 38.4999 24.5547 38.1799 24.768C37.8705 24.9813 37.7159 25.2427 37.7159 25.552C37.7159 25.8933 37.8599 26.16 38.1479 26.352C38.4359 26.544 38.7825 26.64 39.1879 26.64ZM45.6885 18.304C45.5818 18.304 45.4912 18.2667 45.4165 18.192C45.3418 18.1173 45.3045 18.0267 45.3045 17.92V16.768C45.3045 16.6613 45.3418 16.5707 45.4165 16.496C45.4912 16.4213 45.5818 16.384 45.6885 16.384H47.1445C47.2512 16.384 47.3418 16.4213 47.4165 16.496C47.5018 16.5707 47.5445 16.6613 47.5445 16.768V17.92C47.5445 18.0267 47.5072 18.1173 47.4325 18.192C47.3578 18.2667 47.2618 18.304 47.1445 18.304H45.6885ZM45.7525 28C45.6458 28 45.5552 27.9627 45.4805 27.888C45.4058 27.8133 45.3685 27.7227 45.3685 27.616V20.064C45.3685 19.9573 45.4058 19.8667 45.4805 19.792C45.5552 19.7173 45.6458 19.68 45.7525 19.68H47.0805C47.1978 19.68 47.2885 19.7173 47.3525 19.792C47.4272 19.856 47.4645 19.9467 47.4645 20.064V27.616C47.4645 27.7227 47.4272 27.8133 47.3525 27.888C47.2885 27.9627 47.1978 28 47.0805 28H45.7525ZM49.9713 28C49.8646 28 49.7739 27.9627 49.6993 27.888C49.6246 27.8133 49.5872 27.7227 49.5872 27.616V20.064C49.5872 19.9573 49.6246 19.8667 49.6993 19.792C49.7739 19.7173 49.8646 19.68 49.9713 19.68H51.2193C51.3259 19.68 51.4166 19.7173 51.4913 19.792C51.5659 19.8667 51.6033 19.9573 51.6033 20.064V20.608C52.1579 19.8827 52.9313 19.52 53.9233 19.52C55.1073 19.52 55.9339 19.9947 56.4033 20.944C56.6593 20.5173 57.0219 20.176 57.4913 19.92C57.9606 19.6533 58.4673 19.52 59.0113 19.52C59.8859 19.52 60.6006 19.8187 61.1553 20.416C61.7099 21.0133 61.9873 21.8827 61.9873 23.024V27.616C61.9873 27.7227 61.9499 27.8133 61.8753 27.888C61.8113 27.9627 61.7206 28 61.6033 28H60.2913C60.1846 28 60.0939 27.9627 60.0193 27.888C59.9446 27.8133 59.9073 27.7227 59.9073 27.616V23.152C59.9073 22.48 59.7633 21.9947 59.4753 21.696C59.1979 21.3867 58.8246 21.232 58.3553 21.232C57.9393 21.232 57.5819 21.3867 57.2833 21.696C56.9953 22.0053 56.8513 22.4907 56.8513 23.152V27.616C56.8513 27.7227 56.8139 27.8133 56.7393 27.888C56.6646 27.9627 56.5739 28 56.4673 28H55.1553C55.0486 28 54.9579 27.9627 54.8833 27.888C54.8086 27.8133 54.7713 27.7227 54.7713 27.616V23.152C54.7713 22.48 54.6219 21.9947 54.3233 21.696C54.0353 21.3867 53.6673 21.232 53.2193 21.232C52.7926 21.232 52.4299 21.3867 52.1313 21.696C51.8433 22.0053 51.6993 22.4907 51.6993 23.152V27.616C51.6993 27.7227 51.6619 27.8133 51.5873 27.888C51.5126 27.9627 51.4219 28 51.3153 28H49.9713ZM68.7631 31.04C68.6778 31.04 68.6031 31.008 68.5391 30.944C68.4751 30.88 68.4431 30.8053 68.4431 30.72C68.4431 30.624 68.4645 30.5387 68.5071 30.464L69.7551 27.504L66.6831 20.256C66.6405 20.16 66.6191 20.0853 66.6191 20.032C66.6298 19.936 66.6671 19.856 66.7311 19.792C66.7951 19.7173 66.8751 19.68 66.9711 19.68H68.2671C68.4698 19.68 68.6138 19.7813 68.6991 19.984L70.8271 25.216L73.0191 19.984C73.1045 19.7813 73.2485 19.68 73.4511 19.68H74.7311C74.8165 19.68 74.8911 19.712 74.9551 19.776C75.0298 19.84 75.0671 19.9147 75.0671 20C75.0671 20.0747 75.0458 20.16 75.0031 20.256L70.4751 30.736C70.3791 30.9387 70.2298 31.04 70.0271 31.04H68.7631ZM79.8298 28.16C78.5818 28.16 77.6164 27.84 76.9338 27.2C76.2511 26.5493 75.8831 25.664 75.8298 24.544L75.8138 23.84L75.8298 23.136C75.8831 22.0267 76.2564 21.1467 76.9498 20.496C77.6431 19.8453 78.6031 19.52 79.8298 19.52C81.0564 19.52 82.0164 19.8453 82.7098 20.496C83.4031 21.1467 83.7764 22.0267 83.8298 23.136C83.8404 23.264 83.8458 23.4987 83.8458 23.84C83.8458 24.1813 83.8404 24.416 83.8298 24.544C83.7764 25.664 83.4084 26.5493 82.7258 27.2C82.0431 27.84 81.0778 28.16 79.8298 28.16ZM79.8298 26.576C80.3951 26.576 80.8324 26.4 81.1418 26.048C81.4511 25.6853 81.6218 25.1573 81.6538 24.464C81.6644 24.3573 81.6698 24.1493 81.6698 23.84C81.6698 23.5307 81.6644 23.3227 81.6538 23.216C81.6218 22.5227 81.4511 22 81.1418 21.648C80.8324 21.2853 80.3951 21.104 79.8298 21.104C79.2644 21.104 78.8271 21.2853 78.5178 21.648C78.2084 22 78.0378 22.5227 78.0058 23.216L77.9898 23.84L78.0058 24.464C78.0378 25.1573 78.2084 25.6853 78.5178 26.048C78.8271 26.4 79.2644 26.576 79.8298 26.576ZM88.7065 28.16C87.7252 28.16 86.9518 27.84 86.3865 27.2C85.8212 26.5493 85.5385 25.6693 85.5385 24.56V20.064C85.5385 19.9573 85.5758 19.8667 85.6505 19.792C85.7252 19.7173 85.8158 19.68 85.9225 19.68H87.3305C87.4478 19.68 87.5385 19.7173 87.6025 19.792C87.6772 19.856 87.7145 19.9467 87.7145 20.064V24.464C87.7145 25.7867 88.2958 26.448 89.4585 26.448C90.0132 26.448 90.4505 26.272 90.7705 25.92C91.1012 25.568 91.2665 25.0827 91.2665 24.464V20.064C91.2665 19.9573 91.3038 19.8667 91.3785 19.792C91.4532 19.7173 91.5438 19.68 91.6505 19.68H93.0585C93.1758 19.68 93.2665 19.7173 93.3305 19.792C93.4052 19.856 93.4425 19.9467 93.4425 20.064V27.616C93.4425 27.7227 93.4052 27.8133 93.3305 27.888C93.2665 27.9627 93.1758 28 93.0585 28H91.7625C91.6558 28 91.5652 27.9627 91.4905 27.888C91.4158 27.8133 91.3785 27.7227 91.3785 27.616V26.96C90.7812 27.76 89.8905 28.16 88.7065 28.16ZM95.94 28C95.8333 28 95.7427 27.9627 95.668 27.888C95.5933 27.8133 95.556 27.7227 95.556 27.616V20.08C95.556 19.9733 95.5933 19.8827 95.668 19.808C95.7427 19.7227 95.8333 19.68 95.94 19.68H97.236C97.3533 19.68 97.4493 19.7173 97.524 19.792C97.5987 19.8667 97.636 19.9627 97.636 20.08V20.736C97.892 20.3947 98.212 20.1333 98.596 19.952C98.9907 19.7707 99.4387 19.68 99.94 19.68H100.596C100.713 19.68 100.804 19.7173 100.868 19.792C100.943 19.856 100.98 19.9467 100.98 20.064V21.216C100.98 21.3227 100.943 21.4133 100.868 21.488C100.804 21.5627 100.713 21.6 100.596 21.6H99.348C98.8467 21.6 98.452 21.744 98.164 22.032C97.876 22.32 97.732 22.7147 97.732 23.216V27.616C97.732 27.7227 97.6947 27.8133 97.62 27.888C97.5453 27.9627 97.4493 28 97.332 28H95.94ZM106.539 28C106.432 28 106.342 27.9627 106.267 27.888C106.192 27.8133 106.155 27.7227 106.155 27.616V21.376H104.859C104.752 21.376 104.662 21.3387 104.587 21.264C104.512 21.1787 104.475 21.0827 104.475 20.976V20.064C104.475 19.9573 104.512 19.8667 104.587 19.792C104.662 19.7173 104.752 19.68 104.859 19.68H106.155V19.024C106.155 17.1147 107.2 16.16 109.291 16.16H110.379C110.496 16.16 110.587 16.1973 110.651 16.272C110.726 16.336 110.763 16.4267 110.763 16.544V17.456C110.763 17.5733 110.726 17.6693 110.651 17.744C110.576 17.8187 110.486 17.856 110.379 17.856H109.355C108.939 17.856 108.646 17.9573 108.475 18.16C108.315 18.3627 108.235 18.6773 108.235 19.104V19.68H110.219C110.336 19.68 110.427 19.7173 110.491 19.792C110.566 19.856 110.603 19.9467 110.603 20.064V20.976C110.603 21.0933 110.566 21.1893 110.491 21.264C110.416 21.3387 110.326 21.376 110.219 21.376H108.235V27.616C108.235 27.7227 108.198 27.8133 108.123 27.888C108.048 27.9627 107.958 28 107.851 28H106.539ZM112.268 28C112.161 28 112.071 27.9627 111.996 27.888C111.921 27.8133 111.884 27.7227 111.884 27.616V20.08C111.884 19.9733 111.921 19.8827 111.996 19.808C112.071 19.7227 112.161 19.68 112.268 19.68H113.564C113.681 19.68 113.777 19.7173 113.852 19.792C113.927 19.8667 113.964 19.9627 113.964 20.08V20.736C114.22 20.3947 114.54 20.1333 114.924 19.952C115.319 19.7707 115.767 19.68 116.268 19.68H116.924C117.041 19.68 117.132 19.7173 117.196 19.792C117.271 19.856 117.308 19.9467 117.308 20.064V21.216C117.308 21.3227 117.271 21.4133 117.196 21.488C117.132 21.5627 117.041 21.6 116.924 21.6H115.676C115.175 21.6 114.78 21.744 114.492 22.032C114.204 22.32 114.06 22.7147 114.06 23.216V27.616C114.06 27.7227 114.023 27.8133 113.948 27.888C113.873 27.9627 113.777 28 113.66 28H112.268ZM122.031 28.16C120.847 28.16 119.903 27.8187 119.199 27.136C118.505 26.4427 118.137 25.472 118.095 24.224L118.079 23.824L118.095 23.424C118.148 22.208 118.521 21.2533 119.215 20.56C119.919 19.8667 120.857 19.52 122.031 19.52C123.289 19.52 124.26 19.904 124.943 20.672C125.636 21.44 125.983 22.464 125.983 23.744V24.08C125.983 24.1867 125.945 24.2773 125.871 24.352C125.796 24.4267 125.7 24.464 125.583 24.464H120.271V24.592C120.292 25.1787 120.452 25.6747 120.751 26.08C121.06 26.4747 121.481 26.672 122.015 26.672C122.644 26.672 123.151 26.4267 123.535 25.936C123.631 25.8187 123.705 25.744 123.759 25.712C123.823 25.68 123.913 25.664 124.031 25.664H125.407C125.503 25.664 125.583 25.696 125.647 25.76C125.721 25.8133 125.759 25.8827 125.759 25.968C125.759 26.224 125.604 26.528 125.295 26.88C124.996 27.2213 124.564 27.52 123.999 27.776C123.433 28.032 122.777 28.16 122.031 28.16ZM123.807 23.12V23.072C123.807 22.4427 123.647 21.936 123.327 21.552C123.017 21.168 122.585 20.976 122.031 20.976C121.476 20.976 121.044 21.168 120.735 21.552C120.425 21.936 120.271 22.4427 120.271 23.072V23.12H123.807ZM131.265 28.16C130.081 28.16 129.137 27.8187 128.433 27.136C127.74 26.4427 127.372 25.472 127.329 24.224L127.313 23.824L127.329 23.424C127.382 22.208 127.756 21.2533 128.449 20.56C129.153 19.8667 130.092 19.52 131.265 19.52C132.524 19.52 133.494 19.904 134.177 20.672C134.87 21.44 135.217 22.464 135.217 23.744V24.08C135.217 24.1867 135.18 24.2773 135.105 24.352C135.03 24.4267 134.934 24.464 134.817 24.464H129.505V24.592C129.526 25.1787 129.686 25.6747 129.985 26.08C130.294 26.4747 130.716 26.672 131.249 26.672C131.878 26.672 132.385 26.4267 132.769 25.936C132.865 25.8187 132.94 25.744 132.993 25.712C133.057 25.68 133.148 25.664 133.265 25.664H134.641C134.737 25.664 134.817 25.696 134.881 25.76C134.956 25.8133 134.993 25.8827 134.993 25.968C134.993 26.224 134.838 26.528 134.529 26.88C134.23 27.2213 133.798 27.52 133.233 27.776C132.668 28.032 132.012 28.16 131.265 28.16ZM133.041 23.12V23.072C133.041 22.4427 132.881 21.936 132.561 21.552C132.252 21.168 131.82 20.976 131.265 20.976C130.71 20.976 130.278 21.168 129.969 21.552C129.66 21.936 129.505 22.4427 129.505 23.072V23.12H133.041ZM143.724 28.16C142.924 28.16 142.252 28.0427 141.708 27.808C141.164 27.5627 140.758 27.28 140.492 26.96C140.236 26.6293 140.108 26.3467 140.108 26.112C140.108 26.0053 140.145 25.92 140.22 25.856C140.294 25.792 140.38 25.76 140.476 25.76H141.74C141.836 25.76 141.916 25.7973 141.98 25.872C142.022 25.904 142.134 26 142.316 26.16C142.497 26.3307 142.71 26.464 142.956 26.56C143.201 26.656 143.473 26.704 143.772 26.704C144.198 26.704 144.55 26.6187 144.828 26.448C145.105 26.2773 145.244 26.0427 145.244 25.744C145.244 25.52 145.18 25.3387 145.052 25.2C144.934 25.0613 144.716 24.9387 144.396 24.832C144.076 24.7147 143.601 24.592 142.972 24.464C142.065 24.272 141.393 23.9787 140.956 23.584C140.529 23.1893 140.316 22.6667 140.316 22.016C140.316 21.5893 140.444 21.1893 140.7 20.816C140.956 20.432 141.334 20.1227 141.836 19.888C142.348 19.6427 142.956 19.52 143.66 19.52C144.374 19.52 144.993 19.6373 145.516 19.872C146.038 20.096 146.433 20.368 146.7 20.688C146.977 20.9973 147.116 21.2747 147.116 21.52C147.116 21.616 147.078 21.7013 147.004 21.776C146.94 21.84 146.86 21.872 146.764 21.872H145.58C145.494 21.872 145.404 21.8347 145.308 21.76C145.233 21.7067 145.116 21.6053 144.956 21.456C144.796 21.3067 144.609 21.1893 144.396 21.104C144.182 21.0187 143.932 20.976 143.644 20.976C143.249 20.976 142.94 21.0613 142.716 21.232C142.502 21.4027 142.396 21.6267 142.396 21.904C142.396 22.1067 142.449 22.272 142.556 22.4C142.662 22.528 142.87 22.6507 143.18 22.768C143.489 22.8853 143.953 23.0027 144.572 23.12C145.596 23.3227 146.326 23.6373 146.764 24.064C147.212 24.4907 147.436 25.0133 147.436 25.632C147.436 26.3787 147.11 26.9867 146.46 27.456C145.809 27.9253 144.897 28.16 143.724 28.16ZM152.671 28.16C151.487 28.16 150.543 27.8187 149.839 27.136C149.146 26.4427 148.778 25.472 148.735 24.224L148.719 23.824L148.735 23.424C148.789 22.208 149.162 21.2533 149.855 20.56C150.559 19.8667 151.498 19.52 152.671 19.52C153.93 19.52 154.901 19.904 155.583 20.672C156.277 21.44 156.623 22.464 156.623 23.744V24.08C156.623 24.1867 156.586 24.2773 156.511 24.352C156.437 24.4267 156.341 24.464 156.223 24.464H150.911V24.592C150.933 25.1787 151.093 25.6747 151.391 26.08C151.701 26.4747 152.122 26.672 152.655 26.672C153.285 26.672 153.791 26.4267 154.175 25.936C154.271 25.8187 154.346 25.744 154.399 25.712C154.463 25.68 154.554 25.664 154.671 25.664H156.047C156.143 25.664 156.223 25.696 156.287 25.76C156.362 25.8133 156.399 25.8827 156.399 25.968C156.399 26.224 156.245 26.528 155.935 26.88C155.637 27.2213 155.205 27.52 154.639 27.776C154.074 28.032 153.418 28.16 152.671 28.16ZM154.447 23.12V23.072C154.447 22.4427 154.287 21.936 153.967 21.552C153.658 21.168 153.226 20.976 152.671 20.976C152.117 20.976 151.685 21.168 151.375 21.552C151.066 21.936 150.911 22.4427 150.911 23.072V23.12H154.447ZM161.474 28.16C160.674 28.16 160.002 28.0427 159.458 27.808C158.914 27.5627 158.508 27.28 158.242 26.96C157.986 26.6293 157.858 26.3467 157.858 26.112C157.858 26.0053 157.895 25.92 157.97 25.856C158.044 25.792 158.13 25.76 158.226 25.76H159.49C159.586 25.76 159.666 25.7973 159.73 25.872C159.772 25.904 159.884 26 160.066 26.16C160.247 26.3307 160.46 26.464 160.706 26.56C160.951 26.656 161.223 26.704 161.522 26.704C161.948 26.704 162.3 26.6187 162.578 26.448C162.855 26.2773 162.994 26.0427 162.994 25.744C162.994 25.52 162.93 25.3387 162.802 25.2C162.684 25.0613 162.466 24.9387 162.146 24.832C161.826 24.7147 161.351 24.592 160.722 24.464C159.815 24.272 159.143 23.9787 158.706 23.584C158.279 23.1893 158.066 22.6667 158.066 22.016C158.066 21.5893 158.194 21.1893 158.45 20.816C158.706 20.432 159.084 20.1227 159.586 19.888C160.098 19.6427 160.706 19.52 161.41 19.52C162.124 19.52 162.743 19.6373 163.266 19.872C163.788 20.096 164.183 20.368 164.45 20.688C164.727 20.9973 164.866 21.2747 164.866 21.52C164.866 21.616 164.828 21.7013 164.754 21.776C164.69 21.84 164.61 21.872 164.514 21.872H163.33C163.244 21.872 163.154 21.8347 163.058 21.76C162.983 21.7067 162.866 21.6053 162.706 21.456C162.546 21.3067 162.359 21.1893 162.146 21.104C161.932 21.0187 161.682 20.976 161.394 20.976C160.999 20.976 160.69 21.0613 160.466 21.232C160.252 21.4027 160.146 21.6267 160.146 21.904C160.146 22.1067 160.199 22.272 160.306 22.4C160.412 22.528 160.62 22.6507 160.93 22.768C161.239 22.8853 161.703 23.0027 162.322 23.12C163.346 23.3227 164.076 23.6373 164.514 24.064C164.962 24.4907 165.186 25.0133 165.186 25.632C165.186 26.3787 164.86 26.9867 164.21 27.456C163.559 27.9253 162.647 28.16 161.474 28.16ZM169.989 28.16C169.189 28.16 168.517 28.0427 167.973 27.808C167.429 27.5627 167.024 27.28 166.757 26.96C166.501 26.6293 166.373 26.3467 166.373 26.112C166.373 26.0053 166.411 25.92 166.485 25.856C166.56 25.792 166.645 25.76 166.741 25.76H168.005C168.101 25.76 168.181 25.7973 168.245 25.872C168.288 25.904 168.4 26 168.581 26.16C168.763 26.3307 168.976 26.464 169.221 26.56C169.467 26.656 169.739 26.704 170.037 26.704C170.464 26.704 170.816 26.6187 171.093 26.448C171.371 26.2773 171.509 26.0427 171.509 25.744C171.509 25.52 171.445 25.3387 171.317 25.2C171.2 25.0613 170.981 24.9387 170.661 24.832C170.341 24.7147 169.867 24.592 169.237 24.464C168.331 24.272 167.659 23.9787 167.221 23.584C166.795 23.1893 166.581 22.6667 166.581 22.016C166.581 21.5893 166.709 21.1893 166.965 20.816C167.221 20.432 167.6 20.1227 168.101 19.888C168.613 19.6427 169.221 19.52 169.925 19.52C170.64 19.52 171.259 19.6373 171.781 19.872C172.304 20.096 172.699 20.368 172.965 20.688C173.243 20.9973 173.381 21.2747 173.381 21.52C173.381 21.616 173.344 21.7013 173.269 21.776C173.205 21.84 173.125 21.872 173.029 21.872H171.845C171.76 21.872 171.669 21.8347 171.573 21.76C171.499 21.7067 171.381 21.6053 171.221 21.456C171.061 21.3067 170.875 21.1893 170.661 21.104C170.448 21.0187 170.197 20.976 169.909 20.976C169.515 20.976 169.205 21.0613 168.981 21.232C168.768 21.4027 168.661 21.6267 168.661 21.904C168.661 22.1067 168.715 22.272 168.821 22.4C168.928 22.528 169.136 22.6507 169.445 22.768C169.755 22.8853 170.219 23.0027 170.837 23.12C171.861 23.3227 172.592 23.6373 173.029 24.064C173.477 24.4907 173.701 25.0133 173.701 25.632C173.701 26.3787 173.376 26.9867 172.725 27.456C172.075 27.9253 171.163 28.16 169.989 28.16ZM175.673 18.304C175.566 18.304 175.476 18.2667 175.401 18.192C175.326 18.1173 175.289 18.0267 175.289 17.92V16.768C175.289 16.6613 175.326 16.5707 175.401 16.496C175.476 16.4213 175.566 16.384 175.673 16.384H177.129C177.236 16.384 177.326 16.4213 177.401 16.496C177.486 16.5707 177.529 16.6613 177.529 16.768V17.92C177.529 18.0267 177.492 18.1173 177.417 18.192C177.342 18.2667 177.246 18.304 177.129 18.304H175.673ZM175.737 28C175.63 28 175.54 27.9627 175.465 27.888C175.39 27.8133 175.353 27.7227 175.353 27.616V20.064C175.353 19.9573 175.39 19.8667 175.465 19.792C175.54 19.7173 175.63 19.68 175.737 19.68H177.065C177.182 19.68 177.273 19.7173 177.337 19.792C177.412 19.856 177.449 19.9467 177.449 20.064V27.616C177.449 27.7227 177.412 27.8133 177.337 27.888C177.273 27.9627 177.182 28 177.065 28H175.737ZM183.252 28.16C182.004 28.16 181.038 27.84 180.356 27.2C179.673 26.5493 179.305 25.664 179.252 24.544L179.236 23.84L179.252 23.136C179.305 22.0267 179.678 21.1467 180.372 20.496C181.065 19.8453 182.025 19.52 183.252 19.52C184.478 19.52 185.438 19.8453 186.132 20.496C186.825 21.1467 187.198 22.0267 187.252 23.136C187.262 23.264 187.268 23.4987 187.268 23.84C187.268 24.1813 187.262 24.416 187.252 24.544C187.198 25.664 186.83 26.5493 186.148 27.2C185.465 27.84 184.5 28.16 183.252 28.16ZM183.252 26.576C183.817 26.576 184.254 26.4 184.564 26.048C184.873 25.6853 185.044 25.1573 185.076 24.464C185.086 24.3573 185.092 24.1493 185.092 23.84C185.092 23.5307 185.086 23.3227 185.076 23.216C185.044 22.5227 184.873 22 184.564 21.648C184.254 21.2853 183.817 21.104 183.252 21.104C182.686 21.104 182.249 21.2853 181.94 21.648C181.63 22 181.46 22.5227 181.428 23.216L181.412 23.84L181.428 24.464C181.46 25.1573 181.63 25.6853 181.94 26.048C182.249 26.4 182.686 26.576 183.252 26.576ZM189.424 28C189.318 28 189.227 27.9627 189.152 27.888C189.078 27.8133 189.04 27.7227 189.04 27.616V20.064C189.04 19.9573 189.078 19.8667 189.152 19.792C189.227 19.7173 189.318 19.68 189.424 19.68H190.736C190.843 19.68 190.934 19.7173 191.008 19.792C191.083 19.8667 191.12 19.9573 191.12 20.064V20.72C191.75 19.92 192.64 19.52 193.792 19.52C194.774 19.52 195.552 19.8453 196.128 20.496C196.704 21.136 196.992 22.0107 196.992 23.12V27.616C196.992 27.7227 196.955 27.8133 196.88 27.888C196.816 27.9627 196.726 28 196.608 28H195.2C195.094 28 195.003 27.9627 194.928 27.888C194.854 27.8133 194.816 27.7227 194.816 27.616V23.216C194.816 22.5867 194.662 22.1013 194.352 21.76C194.054 21.408 193.616 21.232 193.04 21.232C192.475 21.232 192.027 21.408 191.696 21.76C191.376 22.112 191.216 22.5973 191.216 23.216V27.616C191.216 27.7227 191.179 27.8133 191.104 27.888C191.04 27.9627 190.95 28 190.832 28H189.424Z" fill="#F53855"/>
</svg>
